<svg xmlns="http://www.w3.org/2000/svg" width="24.532" height="23" viewBox="0 0 24.532 23"><defs><style>.a{fill:#eceff1;}.b{fill:#388e3c;}.c{fill:#2e7d32;}.d{fill:#fafafa;}</style></defs><path class="a" d="M267.5,96.877H256.767A.767.767,0,0,1,256,96.11V80.778a.767.767,0,0,1,.767-.767H267.5a.767.767,0,0,1,.767.767V96.11A.767.767,0,0,1,267.5,96.877Z" transform="translate(-243.734 -76.943)"/><g transform="translate(12.266 6.134)"><path class="b" d="M259.833,145.544h-3.067a.767.767,0,0,1,0-1.533h3.067a.767.767,0,1,1,0,1.533Z" transform="translate(-256 -144.011)"/><path class="b" d="M259.833,209.544h-3.067a.767.767,0,0,1,0-1.533h3.067a.767.767,0,1,1,0,1.533Z" transform="translate(-256 -204.944)"/><path class="b" d="M259.833,273.544h-3.067a.767.767,0,0,1,0-1.533h3.067a.767.767,0,1,1,0,1.533Z" transform="translate(-256 -265.878)"/><path class="b" d="M259.833,337.544h-3.067a.767.767,0,0,1,0-1.533h3.067a.767.767,0,1,1,0,1.533Z" transform="translate(-256 -326.811)"/><path class="b" d="M386.3,145.544h-1.533a.767.767,0,0,1,0-1.533H386.3a.767.767,0,0,1,0,1.533Z" transform="translate(-377.867 -144.011)"/><path class="b" d="M386.3,209.544h-1.533a.767.767,0,1,1,0-1.533H386.3a.767.767,0,0,1,0,1.533Z" transform="translate(-377.867 -204.944)"/><path class="b" d="M386.3,273.544h-1.533a.767.767,0,0,1,0-1.533H386.3a.767.767,0,0,1,0,1.533Z" transform="translate(-377.867 -265.878)"/><path class="b" d="M386.3,337.544h-1.533a.767.767,0,1,1,0-1.533H386.3a.767.767,0,0,1,0,1.533Z" transform="translate(-377.867 -326.811)"/></g><path class="c" d="M13.522,16.167a.753.753,0,0,0-.63-.163L.626,18.3A.764.764,0,0,0,0,19.057V35.923a.766.766,0,0,0,.626.753l12.266,2.3a.721.721,0,0,0,.141.014.767.767,0,0,0,.767-.767V16.757A.765.765,0,0,0,13.522,16.167Z" transform="translate(0 -15.989)"/><path class="d" d="M86.694,167.188l-2.424-2.771,2.452-3.152a.767.767,0,0,0-1.21-.943l-2.271,2.919-1.914-2.186a.766.766,0,0,0-1.153,1.009l2.108,2.41-2.137,2.748a.767.767,0,0,0,1.211.941l1.955-2.515,2.229,2.547a.766.766,0,1,0,1.153-1.007Z" transform="translate(-76.151 -153.125)"/></svg>