<svg xmlns="http://www.w3.org/2000/svg" width="16.163" height="17.847" viewBox="0 0 16.163 17.847"><defs><style>.a{fill:#606770;}</style></defs><path class="a" d="M17.962,15.739a2.454,2.454,0,0,0-1.756.673L9.768,12.69a3.015,3.015,0,0,0,.09-.628,3.014,3.014,0,0,0-.09-.628l6.349-3.677a2.694,2.694,0,1,0-.856-1.973,3,3,0,0,0,.09.628L9,10.089a2.71,2.71,0,0,0-1.846-.717A2.666,2.666,0,0,0,4.5,12.062a2.711,2.711,0,0,0,4.547,1.973l6.393,3.722a2.249,2.249,0,0,0-.09.583,2.611,2.611,0,1,0,2.611-2.6Z" transform="translate(-4.5 -3.094)"/></svg>