<svg xmlns="http://www.w3.org/2000/svg" width="15.25" height="20.333" viewBox="0 0 15.25 20.333"><defs><style>.a{fill:#515151;}</style></defs><path class="a" d="M8.9,5.4V0H.953A.951.951,0,0,0,0,.953V19.38a.951.951,0,0,0,.953.953H14.3a.951.951,0,0,0,.953-.953V6.354h-5.4A.956.956,0,0,1,8.9,5.4Zm2.542,9.372a.478.478,0,0,1-.477.477H4.289a.478.478,0,0,1-.477-.477v-.318a.478.478,0,0,1,.477-.477h6.672a.478.478,0,0,1,.477.477Zm0-2.542a.478.478,0,0,1-.477.477H4.289a.478.478,0,0,1-.477-.477v-.318a.478.478,0,0,1,.477-.477h6.672a.478.478,0,0,1,.477.477Zm0-2.859V9.69a.478.478,0,0,1-.477.477H4.289a.478.478,0,0,1-.477-.477V9.372A.478.478,0,0,1,4.289,8.9h6.672A.478.478,0,0,1,11.438,9.372ZM15.25,4.841v.242H10.167V0h.242a.952.952,0,0,1,.675.278L14.972,4.17A.95.95,0,0,1,15.25,4.841Z"/></svg>