<svg xmlns="http://www.w3.org/2000/svg" width="15.574" height="10.011" viewBox="0 0 15.574 10.011"><defs><style>.a{fill:#606770;}</style></defs><path class="a" d="M10.03,7.875c-2.795,0-5,1.759-7.633,4.634a.55.55,0,0,0,0,.74c2.256,2.492,4.244,4.637,7.637,4.637,3.351,0,5.864-2.7,7.651-4.658a.545.545,0,0,0,.017-.72C15.877,10.3,13.357,7.875,10.03,7.875Zm.153,8.13a3.128,3.128,0,1,1,2.979-2.979A3.13,3.13,0,0,1,10.183,16.005Z" transform="translate(-2.252 -7.875)"/><path class="a" d="M15.725,14.091a1.633,1.633,0,0,1,.108-.587c-.035,0-.07,0-.108,0a2.224,2.224,0,1,0,2.225,2.225c0-.045,0-.09,0-.136a1.541,1.541,0,0,1-.633.136A1.614,1.614,0,0,1,15.725,14.091Z" transform="translate(-7.94 -10.719)"/></svg>