<svg xmlns="http://www.w3.org/2000/svg" width="21.3" height="14.91" viewBox="0 0 21.3 14.91"><defs><style>.a{fill:#fc0;}</style></defs><path class="a" d="M6.39,9.7A3.727,3.727,0,1,0,2.662,5.977,3.726,3.726,0,0,0,6.39,9.7ZM8.946,10.77H8.67a5.146,5.146,0,0,1-4.559,0H3.834A3.835,3.835,0,0,0,0,14.6v.958a1.6,1.6,0,0,0,1.6,1.6h9.585a1.6,1.6,0,0,0,1.6-1.6V14.6A3.835,3.835,0,0,0,8.946,10.77ZM15.975,9.7A3.195,3.195,0,1,0,12.78,6.51,3.2,3.2,0,0,0,15.975,9.7Zm1.6,1.065h-.126a4.2,4.2,0,0,1-2.942,0h-.126a3.7,3.7,0,0,0-1.854.513A4.87,4.87,0,0,1,13.845,14.6v1.278c0,.073-.017.143-.02.213H19.7a1.6,1.6,0,0,0,1.6-1.6A3.726,3.726,0,0,0,17.572,10.77Z" transform="translate(0 -2.25)"/></svg>