<svg xmlns="http://www.w3.org/2000/svg" width="16.816" height="16.395" viewBox="0 0 16.816 16.395"><defs><style>.a{fill:#1da1f3;}</style></defs><g transform="translate(-23.878 -27.668)"><path class="a" d="M103.422,36.436a4.771,4.771,0,0,1,1.563-3.063,5.671,5.671,0,0,0,1.469-2.969c0-.844-.375-2.032.563-2.563S109.642,28,109.767,30s-.156,2.719-.469,3.157,0,.438.344.438h3.5a1.534,1.534,0,0,1,1.563,1.5,1.87,1.87,0,0,1-.438,1.188,1.758,1.758,0,0,1,.625,1.5,1.272,1.272,0,0,1-.875,1.313,1.788,1.788,0,0,1-.875,2.188,1.676,1.676,0,0,1-1.563,2.032h-5.532c-1.594,0-2.657-.625-2.657-1.5S103.422,37.218,103.422,36.436Z" transform="translate(-74.199 0)"/><path class="a" d="M27.835,145.552H23.97a.092.092,0,0,1-.092-.092v-8.942a.092.092,0,0,1,.092-.092h3.864a.2.2,0,0,1,.2.2v8.726A.2.2,0,0,1,27.835,145.552Z" transform="translate(0 -101.489)"/></g></svg>