<svg xmlns="http://www.w3.org/2000/svg" width="19.959" height="19.459" viewBox="0 0 19.959 19.459"><defs><style>.a{fill:#606770;}</style></defs><g transform="translate(-23.878 -27.668)"><path class="a" d="M103.428,38.075a5.662,5.662,0,0,1,1.855-3.636,6.73,6.73,0,0,0,1.744-3.524c0-1-.445-2.411.668-3.042s3.116.186,3.265,2.56-.186,3.228-.556,3.747,0,.519.408.519h4.155a1.821,1.821,0,0,1,1.855,1.781,2.219,2.219,0,0,1-.519,1.41,2.087,2.087,0,0,1,.742,1.781A1.51,1.51,0,0,1,116,41.228a2.122,2.122,0,0,1-1.039,2.6,1.989,1.989,0,0,1-1.855,2.411h-6.566c-1.892,0-3.153-.742-3.153-1.781S103.428,39,103.428,38.075Z" transform="translate(-73.206 0)"/><path class="a" d="M28.574,147.258H23.987a.109.109,0,0,1-.109-.109V136.534a.109.109,0,0,1,.109-.109h4.587a.238.238,0,0,1,.238.238V147.02A.238.238,0,0,1,28.574,147.258Z" transform="translate(0 -100.131)"/></g></svg>