<svg xmlns="http://www.w3.org/2000/svg" width="22.675" height="25.238" viewBox="0 0 22.675 25.238"><defs><style>.a{fill:#e3eaef;}.a,.b,.c{fill-rule:evenodd;}.b{fill:#c5d3de;}.c{fill:#fff;}.d{fill:#6d91ac;}</style></defs><g transform="translate(0.493 0.493)"><path class="a" d="M47.829,29.323V10H36V34.252h3.943V29.323h3.943v4.929h3.943Z" transform="translate(-35.999 -10)"/><path class="b" d="M116,402h3.943v4.929H116Z" transform="translate(-112.056 -382.676)"/><path class="b" d="M276,402h9.859v4.929H276Z" transform="translate(-264.169 -382.676)"/><path class="a" d="M276,130h9.859v13.408H276Z" transform="translate(-264.169 -124.089)"/><g transform="translate(1.479 1.479)"><path class="c" d="M136.492,40h.986a.493.493,0,0,1,.493.493v.986a.493.493,0,0,1-.493.493h-.986A.493.493,0,0,1,136,41.48v-.986A.493.493,0,0,1,136.492,40Z" transform="translate(-132.549 -40.001)"/><path class="c" d="M136.492,110h.986a.493.493,0,0,1,.493.493v.986a.493.493,0,0,1-.493.493h-.986a.493.493,0,0,1-.493-.493v-.986A.493.493,0,0,1,136.492,110Z" transform="translate(-132.549 -106.55)"/><path class="c" d="M136.492,180h.986a.493.493,0,0,1,.493.493v.986a.493.493,0,0,1-.493.493h-.986a.493.493,0,0,1-.493-.493v-.986A.493.493,0,0,1,136.492,180Z" transform="translate(-132.549 -173.1)"/><path class="c" d="M136.492,250h.986a.493.493,0,0,1,.493.493v.986a.493.493,0,0,1-.493.493h-.986a.493.493,0,0,1-.493-.493v-.986A.493.493,0,0,1,136.492,250Z" transform="translate(-132.549 -239.648)"/><path class="c" d="M136.492,320h.986a.493.493,0,0,1,.493.493v.986a.493.493,0,0,1-.493.493h-.986a.493.493,0,0,1-.493-.493v-.986A.493.493,0,0,1,136.492,320Z" transform="translate(-132.549 -306.198)"/><path class="c" d="M66.494,40h.986a.493.493,0,0,1,.493.493v.986a.493.493,0,0,1-.493.493h-.986A.493.493,0,0,1,66,41.48v-.986A.493.493,0,0,1,66.494,40Z" transform="translate(-66.001 -40.001)"/><path class="c" d="M66.494,110h.986a.493.493,0,0,1,.493.493v.986a.493.493,0,0,1-.493.493h-.986A.493.493,0,0,1,66,111.48v-.986A.493.493,0,0,1,66.494,110Z" transform="translate(-66.001 -106.55)"/><path class="c" d="M66.494,180h.986a.493.493,0,0,1,.493.493v.986a.493.493,0,0,1-.493.493h-.986A.493.493,0,0,1,66,181.48v-.986A.493.493,0,0,1,66.494,180Z" transform="translate(-66.001 -173.1)"/><path class="c" d="M66.494,250h.986a.493.493,0,0,1,.493.493v.986a.493.493,0,0,1-.493.493h-.986a.493.493,0,0,1-.493-.493v-.986A.493.493,0,0,1,66.494,250Z" transform="translate(-66.001 -239.648)"/><path class="c" d="M66.494,320h.986a.493.493,0,0,1,.493.493v.986a.493.493,0,0,1-.493.493h-.986a.493.493,0,0,1-.493-.493v-.986A.493.493,0,0,1,66.494,320Z" transform="translate(-66.001 -306.198)"/><path class="c" d="M206.494,40h.986a.493.493,0,0,1,.493.493v.986a.493.493,0,0,1-.493.493h-.986A.493.493,0,0,1,206,41.48v-.986A.493.493,0,0,1,206.494,40Z" transform="translate(-199.1 -40.001)"/><path class="c" d="M206.494,110h.986a.493.493,0,0,1,.493.493v.986a.493.493,0,0,1-.493.493h-.986a.493.493,0,0,1-.493-.493v-.986A.493.493,0,0,1,206.494,110Z" transform="translate(-199.1 -106.55)"/><path class="c" d="M206.494,180h.986a.493.493,0,0,1,.493.493v.986a.493.493,0,0,1-.493.493h-.986a.493.493,0,0,1-.493-.493v-.986A.493.493,0,0,1,206.494,180Z" transform="translate(-199.1 -173.1)"/><path class="c" d="M206.494,250h.986a.493.493,0,0,1,.493.493v.986a.493.493,0,0,1-.493.493h-.986a.493.493,0,0,1-.493-.493v-.986A.493.493,0,0,1,206.494,250Z" transform="translate(-199.1 -239.648)"/><path class="c" d="M206.494,320h.986a.493.493,0,0,1,.493.493v.986a.493.493,0,0,1-.493.493h-.986a.493.493,0,0,1-.493-.493v-.986A.493.493,0,0,1,206.494,320Z" transform="translate(-199.1 -306.198)"/><path class="c" d="M391.493,180h.986a.493.493,0,0,1,.493.493v.986a.493.493,0,0,1-.493.493h-.986a.493.493,0,0,1-.493-.493v-.986A.493.493,0,0,1,391.493,180Z" transform="translate(-374.98 -173.1)"/><path class="c" d="M391.493,250h.986a.493.493,0,0,1,.493.493v.986a.493.493,0,0,1-.493.493h-.986a.493.493,0,0,1-.493-.493v-.986A.493.493,0,0,1,391.493,250Z" transform="translate(-374.98 -239.648)"/><path class="c" d="M391.493,320h.986a.493.493,0,0,1,.493.493v.986a.493.493,0,0,1-.493.493h-.986a.493.493,0,0,1-.493-.493v-.986A.493.493,0,0,1,391.493,320Z" transform="translate(-374.98 -306.198)"/><path class="c" d="M321.495,180h.986a.493.493,0,0,1,.493.493v.986a.493.493,0,0,1-.493.493h-.986a.493.493,0,0,1-.493-.493v-.986A.493.493,0,0,1,321.495,180Z" transform="translate(-308.432 -173.1)"/><path class="c" d="M321.495,250h.986a.493.493,0,0,1,.493.493v.986a.493.493,0,0,1-.493.493h-.986a.493.493,0,0,1-.493-.493v-.986A.493.493,0,0,1,321.495,250Z" transform="translate(-308.432 -239.648)"/><path class="c" d="M321.495,320h.986a.493.493,0,0,1,.493.493v.986a.493.493,0,0,1-.493.493h-.986a.493.493,0,0,1-.493-.493v-.986A.493.493,0,0,1,321.495,320Z" transform="translate(-308.432 -306.198)"/></g></g><path class="d" d="M48.182,5.915H38.816V.493A.493.493,0,0,0,38.323,0H26.493A.493.493,0,0,0,26,.493V24.745a.493.493,0,0,0,.493.493H48.182a.493.493,0,0,0,.493-.493V6.408A.493.493,0,0,0,48.182,5.915ZM38.816,6.9h8.873V19.323H38.816ZM30.929,24.252V20.309h2.958v3.943Zm3.451-4.929H30.436a.493.493,0,0,0-.493.493v4.436H26.986V.986H37.83V24.252H34.873V19.816A.493.493,0,0,0,34.38,19.323Zm4.436,4.929V20.309h8.873v3.943Z" transform="translate(-26)"/></svg>