<svg xmlns="http://www.w3.org/2000/svg" width="70.139" height="59.3" viewBox="0 0 70.139 59.3"><defs><style>.a{fill:#ff1316;}.b{fill:#fadc60;}.c{fill:#f2c42c;}.d{fill:#3a484a;}.e{fill:#b3f0ff;}.f{fill:#57d0e6;}.g{fill:#85e7ff;}</style></defs><path class="a" d="M98.135,124.381l-1.051-2.108a4.707,4.707,0,0,1,.36-4.806l1.354-1.927-1.626-1.7a4.707,4.707,0,0,1-1.072-4.7l.725-2.241-2.056-1.149a4.707,4.707,0,0,1-2.41-4.174l.033-2.355-2.3-.492a4.707,4.707,0,0,1-3.533-3.278l-.663-2.26-2.346.209A4.707,4.707,0,0,1,79.2,91.3l-1.3-1.964-2.18.891a4.707,4.707,0,0,1-4.766-.718l-1.821-1.494-1.821,1.494a4.707,4.707,0,0,1-4.766.718l-2.18-.891-1.3,1.964a4.707,4.707,0,0,1-4.343,2.091l-2.346-.209-.663,2.26a4.707,4.707,0,0,1-3.533,3.278l-2.3.492.033,2.355a4.708,4.708,0,0,1-2.41,4.174l-2.056,1.149.725,2.241a4.707,4.707,0,0,1-1.072,4.7l-1.626,1.7,1.354,1.927a4.707,4.707,0,0,1,.36,4.806l-1.051,2.108h58Z" transform="translate(-34.066 -81.379)"/><path class="b" d="M131.567,177.011a22.424,22.424,0,1,0-33.673,0Z" transform="translate(-79.661 -126.048)"/><path class="c" d="M116.847,139.877c-.7-.065-1.4-.1-2.117-.1a22.423,22.423,0,0,0-16.836,37.234h4.234a22.423,22.423,0,0,1,14.72-37.134Z" transform="translate(-79.661 -126.048)"/><g transform="translate(9.507)"><path class="d" d="M172.511,201.861a1.058,1.058,0,0,0-1.058,1.058v1.9a1.058,1.058,0,0,0,2.117,0v-1.9A1.058,1.058,0,0,0,172.511,201.861Z" transform="translate(-157.473 -179.628)"/><path class="d" d="M326.152,201.861a1.058,1.058,0,0,0-1.058,1.058v1.9a1.058,1.058,0,1,0,2.117,0v-1.9A1.058,1.058,0,0,0,326.152,201.861Z" transform="translate(-290.066 -179.628)"/><path class="d" d="M236.263,215.057a1.058,1.058,0,0,0-1.493.1,2.452,2.452,0,0,1-3.6,0,1.058,1.058,0,0,0-1.594,1.393,4.568,4.568,0,0,0,6.789,0A1.058,1.058,0,0,0,236.263,215.057Z" transform="translate(-207.407 -190.79)"/><path class="d" d="M336.745,41.834a12.614,12.614,0,0,0-3.019.9,12.611,12.611,0,0,0-1.54-2.747,1.058,1.058,0,1,0-1.693,1.27,11.015,11.015,0,0,1,1.632,3.259,1.058,1.058,0,0,0,1.507.612,11.021,11.021,0,0,1,3.442-1.2,1.058,1.058,0,0,0-.329-2.091Z" transform="translate(-294.542 -39.56)"/><path class="d" d="M76.663,77.489a1.059,1.059,0,0,0-1.482.211,12.6,12.6,0,0,0-1.54,2.747,12.622,12.622,0,0,0-3.019-.9,1.058,1.058,0,0,0-.329,2.091,11.018,11.018,0,0,1,3.442,1.2,1.083,1.083,0,0,0,.9.047,1.058,1.058,0,0,0,.61-.659,11.014,11.014,0,0,1,1.632-3.259A1.058,1.058,0,0,0,76.663,77.489Z" transform="translate(-69.399 -72.11)"/><path class="d" d="M442.816,104.188a1.058,1.058,0,0,0-1.362-.622,12.6,12.6,0,0,0-2.779,1.482,12.614,12.614,0,0,0-2.058-2.384,1.058,1.058,0,0,0-1.405,1.583,11.023,11.023,0,0,1,2.251,2.867,1.058,1.058,0,0,0,1.6.3,11.012,11.012,0,0,1,3.133-1.863A1.058,1.058,0,0,0,442.816,104.188Z" transform="translate(-384.793 -93.79)"/></g><path class="e" d="M70.138,317.026v-6.763a12.638,12.638,0,0,0-10.02,0h0a12.637,12.637,0,0,1-10.02,0h0a12.638,12.638,0,0,0-10.02,0h0a12.637,12.637,0,0,1-10.02,0h0a12.638,12.638,0,0,0-10.02,0h0a12.637,12.637,0,0,1-10.02,0h0a12.638,12.638,0,0,0-10.02,0v6.763l2.632,2.632h63.2Z" transform="translate(0.001 -272.287)"/><path class="f" d="M70.138,389.5v6.763a12.638,12.638,0,0,0-10.02,0h0a12.638,12.638,0,0,1-10.02,0h0a12.638,12.638,0,0,0-10.02,0h0a12.638,12.638,0,0,1-10.02,0h0a12.638,12.638,0,0,0-10.02,0h0a12.638,12.638,0,0,1-10.02,0h0a12.638,12.638,0,0,0-10.02,0V389.5l2.632-4.13h63.2Z" transform="translate(0.001 -337.995)"/><path class="g" d="M0,366.391a12.638,12.638,0,0,1,10.02,0h0a12.638,12.638,0,0,0,10.02,0h0a12.638,12.638,0,0,1,10.02,0h0a12.638,12.638,0,0,0,10.02,0h0a12.638,12.638,0,0,1,10.02,0h0a12.638,12.638,0,0,0,10.02,0h0a12.638,12.638,0,0,1,10.02,0v-6.762a12.638,12.638,0,0,0-10.02,0h0a12.639,12.639,0,0,1-10.02,0h0a12.638,12.638,0,0,0-10.02,0h0a12.639,12.639,0,0,1-10.02,0h0a12.638,12.638,0,0,0-10.02,0h0a12.639,12.639,0,0,1-10.02,0h0a12.638,12.638,0,0,0-10.02,0v6.762Z" transform="translate(0 -314.889)"/></svg>