<svg xmlns="http://www.w3.org/2000/svg" width="27.619" height="26.967" viewBox="0 0 27.619 26.967"><defs><style>.a{fill:#a7c7d3;}.b{fill:#fecbaa;}.c{fill:#fdd559;}.d{fill:#ff8812;}.e{fill:#ffae85;}.f{fill:#ff84a7;}.g{fill:#ef6085;}.h{fill:#fedfc5;}.i{fill:#83d9ff;}.j{fill:#5186ff;}</style></defs><path class="a" d="M47.48,89.228a.422.422,0,1,1,.024,0H47.48ZM45.8,89.165l-.049,0h0a.417.417,0,0,1,.086-.829h.013a.417.417,0,0,1-.048.831Zm3.348-.129a.417.417,0,0,1-.08-.826h.008a.417.417,0,0,1,.157.819h0A.428.428,0,0,1,49.153,89.037Zm-5-.189a.424.424,0,0,1-.11-.015h0a.417.417,0,0,1,.213-.806l.009,0a.417.417,0,0,1-.11.819Zm6.626-.256a.417.417,0,0,1-.143-.809l.007,0a.417.417,0,1,1,.282.785h0A.418.418,0,0,1,50.777,88.592Zm-8.214-.312a.411.411,0,0,1-.17-.037l-.006,0a.414.414,0,1,1,.176.039Zm9.749-.377a.421.421,0,1,1,.205-.054l-.009.005A.415.415,0,0,1,52.312,87.9ZM56.1,84.177l0,0-.044-.031ZM36.857,82.36a.417.417,0,0,1-.386-.26v0a.417.417,0,1,1,.77-.318l0,.007a.417.417,0,0,1-.386.574Zm20.689-.8a.42.42,0,1,1,.4-.3l-.005.016A.417.417,0,0,1,57.547,81.56Zm-21.2-.8a.417.417,0,0,1-.405-.32V80.43a.417.417,0,1,1,.811-.194v.005a.417.417,0,0,1-.406.514Zm21.582-.835a.411.411,0,0,1-.073-.007.419.419,0,1,1,.486-.355l0,.017A.417.417,0,0,1,57.93,79.921Zm-21.84-.83a.416.416,0,0,1-.415-.38v-.017a.417.417,0,1,1,.452.4Zm21.967-.849a.417.417,0,0,1-.417-.417v-.031a.417.417,0,1,1,.834,0V77.8s0,.006,0,.009,0,.007,0,.011v.005A.417.417,0,0,1,58.058,78.242Zm-21.968-.834-.036,0a.42.42,0,1,1,.453-.4v.017A.417.417,0,0,1,36.089,77.408Zm21.838-.869a.417.417,0,0,1-.41-.345l0-.017a.417.417,0,1,1,.486.355A.41.41,0,0,1,57.927,76.538Zm.07-.433-.07.01Zm-21.655-.362a.42.42,0,1,1,.409-.337l0,.017A.417.417,0,0,1,36.342,75.744Zm21.2-.842a.42.42,0,0,1-.4-.287l0-.015a.417.417,0,1,1,.8-.245h0a.415.415,0,0,1-.264.525A.406.406,0,0,1,57.545,74.9Zm-20.7-.765a.417.417,0,0,1-.386-.574l0-.005a.417.417,0,1,1,.772.314l0,.005A.417.417,0,0,1,36.848,74.136Zm20.065-.8a.419.419,0,0,1-.373-.227l-.006-.012a.417.417,0,0,1,.748-.368h0a.417.417,0,0,1-.37.606Zm-19.318-.714a.42.42,0,1,1,.366-.216l-.01.016a.416.416,0,0,1-.356.2Zm18.453-.732a.419.419,0,1,1,.336-.664l.009.013a.417.417,0,0,1-.345.651Zm-17.484-.646a.417.417,0,0,1-.321-.683l0,0a.417.417,0,1,1,.641.532l0,0A.415.415,0,0,1,38.562,71.248ZM54.973,70.6a.418.418,0,1,1,.294-.712l.007.007a.417.417,0,0,1-.3.705Zm-15.244-.564a.417.417,0,0,1-.276-.729h0a.417.417,0,0,1,.558.62l-.007.006a.416.416,0,0,1-.276.1Zm13.986-.555a.415.415,0,0,1-.246-.08l-.014-.011a.417.417,0,1,1,.26.091ZM53.752,69l-.042.054Zm-12.686.006a.421.421,0,1,1,.238-.075l-.015.01a.414.414,0,0,1-.224.065ZM52.3,68.564a.413.413,0,0,1-.195-.049l-.01-.005a.417.417,0,1,1,.4-.73h0a.417.417,0,0,1-.2.784ZM42.543,68.2a.417.417,0,0,1-.172-.8l.01,0a.417.417,0,1,1,.163.8Zm0,0" transform="translate(-33.748 -63.733)"/><path class="b" d="M187.871,167.977,181.6,161.7a1,1,0,1,1,1.421-1.421l-1.616-1.616a1,1,0,0,1,1.325-1.5l-.615-.615a1,1,0,0,1-.3-.712.941.941,0,0,1,.013-.163,1.005,1.005,0,0,1,1.7-.546l.7.7a1,1,0,0,1-.282-.872.994.994,0,0,1,.281-.551,1.006,1.006,0,0,1,1.422,0l4.078,4.078.011-.016a1.838,1.838,0,0,1,2.6,0l1.9,1.9a1.951,1.951,0,0,1,.571,1.377v1.19a2.1,2.1,0,0,0,.616,1.483l.424.424-4.85,4.85-.542-.542a2.1,2.1,0,0,0-1.348-.611,1.95,1.95,0,0,1-1.251-.567Zm0,0" transform="translate(-171.336 -145.799)"/><path class="c" d="M356.519,349.916l5.505-5.505a.464.464,0,0,1,.657,0l1.961,1.961a.464.464,0,0,1,0,.657l-5.505,5.505a.464.464,0,0,1-.657,0l-1.961-1.961a.465.465,0,0,1,0-.657Zm0,0" transform="translate(-337.158 -325.703)"/><path class="d" d="M461.53,380.142a.416.416,0,1,0,0-.589A.416.416,0,0,0,461.53,380.142Zm0,0" transform="translate(-436.518 -358.963)"/><path class="e" d="M342.5,228.565l-1.4-1.4.011-.016a1.828,1.828,0,0,1,.71-.441l1.272,1.272a.417.417,0,1,1-.589.589Zm0,0" transform="translate(-322.694 -214.474)"/><path class="b" d="M65.334,167.985l6.275-6.275a1,1,0,1,0-1.421-1.421l1.616-1.616a1,1,0,0,0-1.325-1.5l.615-.615a1,1,0,0,0,.3-.712.943.943,0,0,0-.013-.164,1.005,1.005,0,0,0-1.7-.546l-.7.7a1,1,0,1,0-1.421-1.421l-4.078,4.078-.011-.016a1.838,1.838,0,0,0-2.6,0l-1.9,1.9a1.951,1.951,0,0,0-.571,1.377v1.19a2.1,2.1,0,0,1-.615,1.483l-.424.424,4.85,4.85.542-.542a2.1,2.1,0,0,1,1.348-.611,1.95,1.95,0,0,0,1.251-.567Zm0,0" transform="translate(-54.25 -145.807)"/><path class="f" d="M8.26,349.927l-5.505-5.505a.464.464,0,0,0-.657,0L.137,346.382a.464.464,0,0,0,0,.657l5.505,5.505a.465.465,0,0,0,.657,0l1.961-1.961a.465.465,0,0,0,0-.657Zm0,0" transform="translate(-0.001 -325.713)"/><path class="g" d="M105.8,450.081a.416.416,0,1,0-.589,0A.416.416,0,0,0,105.8,450.081Zm0,0" transform="translate(-99.423 -425.129)"/><path class="e" d="M132.4,228.577l1.4-1.4-.011-.016a1.828,1.828,0,0,0-.71-.441l-1.272,1.272a.417.417,0,0,0,.59.59Zm0,0" transform="translate(-124.584 -214.485)"/><path class="h" d="M157,72.055V80.93a1,1,0,1,1-2.01,0v2.285a1,1,0,0,1-.294.711,1,1,0,0,1-1.293.109,1,1,0,0,1-.414-.694v.87a1,1,0,0,1-.295.712.95.95,0,0,1-.125.106,1.005,1.005,0,0,1-1.591-.818v-1a1,1,0,1,1-2.01,0V77.447l-.019,0a1.838,1.838,0,0,1-1.838-1.841V72.921a1.952,1.952,0,0,1,.57-1.378l.84-.842a2.1,2.1,0,0,0,.614-1.484v-.6H156v.766a2.1,2.1,0,0,0,.521,1.385A1.95,1.95,0,0,1,157,72.055Zm0,0" transform="translate(-139.177 -64.916)"/><path class="e" d="M149.661,160.287a1.006,1.006,0,0,0-1.422,0l1.616-1.616a1,1,0,0,0-1.325-1.5l.615-.615a1,1,0,0,0,.3-.712.947.947,0,0,0-.013-.164,1.005,1.005,0,0,0-1.7-.546l-.7.7a1,1,0,1,0-1.421-1.421l-4.078,4.078-.011-.016a1.828,1.828,0,0,0-.71-.441,1.847,1.847,0,0,0-.954-.059,2.692,2.692,0,0,0,1.416,1.071V164.1a1.84,1.84,0,0,0,2.2,1.805,1.844,1.844,0,0,0,1.066.936l5.137-5.137a1,1,0,0,0,0-1.422Zm0,0" transform="translate(-132.3 -145.806)"/><path class="e" d="M189.985,161.812v-3.549a1.865,1.865,0,0,0-.245.206l-.011.016-4.078-4.078a1.006,1.006,0,0,0-1.422,0,.994.994,0,0,0-.281.551,1,1,0,0,0,.282.872l-.7-.7a1,1,0,0,0-1.7.546.961.961,0,0,0-.013.163,1,1,0,0,0,.3.712l.615.615a1,1,0,0,0-1.608.632.988.988,0,0,0-.013.161,1,1,0,0,0,.3.711l1.616,1.616a1,1,0,1,0-1.421,1.421l4.2,4.2a1.847,1.847,0,0,0,.345.032,1.822,1.822,0,0,0,1.076-.348,1.859,1.859,0,0,0,.225-.191,1.827,1.827,0,0,0,.538-1.3v-.453c.056.005.114.008.171.008a1.841,1.841,0,0,0,1.838-1.84Zm0,0" transform="translate(-171.329 -145.798)"/><path class="h" d="M157,72.055V80.93a1,1,0,0,1-1,1.006h-.047a.994.994,0,0,1-.54-.189h0a1,1,0,0,1-.417-.816v2.285a1,1,0,0,1-.294.711,1,1,0,0,1-1.293.109,1,1,0,0,1-.414-.694v.87a1,1,0,0,1-.295.712.951.951,0,0,1-.125.106,1.005,1.005,0,0,1-1.591-.818v-1a1,1,0,1,1-2.01,0V77.447l-.019,0a1.838,1.838,0,0,1-1.838-1.841V72.921a1.952,1.952,0,0,1,.57-1.378l.84-.842a2.106,2.106,0,0,0,.614-1.484v-.6H156v.766a1.9,1.9,0,0,0,.066.518,2.09,2.09,0,0,0,.455.866A1.965,1.965,0,0,1,157,72.055Zm0,0" transform="translate(-139.177 -64.916)"/><path class="b" d="M190.84,72.055V80.93a1,1,0,0,1-1,1.006h-.047a.994.994,0,0,1-.54-.189l.017-8.552a1.305,1.305,0,0,0-.033-.237,3.866,3.866,0,0,0-3.867-3.119h-2.483a2.092,2.092,0,0,0,.094-.62v-.6h6.859v.766a1.9,1.9,0,0,0,.066.518,2.089,2.089,0,0,0,.455.866,1.965,1.965,0,0,1,.484,1.286Zm0,0" transform="translate(-173.017 -64.916)"/><path class="i" d="M175.352,3.7h-7.786a.464.464,0,0,1-.464-.464V.464A.464.464,0,0,1,167.566,0h7.786a.464.464,0,0,1,.464.464V3.237A.464.464,0,0,1,175.352,3.7Zm0,0" transform="translate(-158.088 0)"/><path class="j" d="M193.294,27a.416.416,0,1,0-.416.417A.416.416,0,0,0,193.294,27Zm0,0" transform="translate(-182.079 -25.152)"/><g transform="translate(8.96 10.129)"><path class="b" d="M286.256,203.449v5.46a1,1,0,0,1-.417-.816v2.285a1,1,0,0,1-.294.711.974.974,0,0,1-.123.1v-7.745a.417.417,0,0,1,.834,0Zm0,0" transform="translate(-278.985 -202.208)"/><path class="b" d="M249.118,203.448v7.75a1,1,0,0,1-.414-.694v.87a1,1,0,0,1-.295.712.954.954,0,0,1-.125.106v-8.744a.417.417,0,1,1,.834,0Zm0,0" transform="translate(-243.851 -202.208)"/><path class="b" d="M211.9,203.448v8.741a1,1,0,0,1-.417-.816v-1a1,1,0,0,1-.417.816v-7.745a.417.417,0,0,1,.834,0Zm0,0" transform="translate(-208.644 -202.208)"/><path class="b" d="M166.928,188.178v1.986l-.02,0a1.829,1.829,0,0,1-.814-.19v-1.8a.417.417,0,1,1,.834,0Zm0,0" transform="translate(-166.094 -187.761)"/></g></svg>