<svg id="friendship" xmlns="http://www.w3.org/2000/svg" width="23.196" height="19.671" viewBox="0 0 23.196 19.671">
  <path id="Path_372" data-name="Path 372" d="M277.564,28.987h2.254a1.409,1.409,0,0,1,1.286.782l.144.308h.68a2.016,2.016,0,0,1,2.089,1.934v7.112a1.432,1.432,0,0,1-1.484,1.374h-7.5a1.432,1.432,0,0,1-1.484-1.374V32.7A3.87,3.87,0,0,1,277.564,28.987Z" transform="translate(-261.161 -28.673)" fill="#475d6d"/>
  <path id="Path_373" data-name="Path 373" d="M389.33,30.077h-.68l-.144-.308a1.409,1.409,0,0,0-1.286-.782h-1.167a1.409,1.409,0,0,1,1.286.782l.144.308h.68a2.016,2.016,0,0,1,2.089,1.934v7.112a1.432,1.432,0,0,1-1.484,1.374h1.167a1.432,1.432,0,0,0,1.484-1.374V32.011A2.016,2.016,0,0,0,389.33,30.077Z" transform="translate(-368.563 -28.673)" fill="#2c3f4f"/>
  <path id="Path_374" data-name="Path 374" d="M25.032,33l-4.274-.941a1.423,1.423,0,0,0-1.266.332l-1.215,1.125h-.515a1.3,1.3,0,0,0-1.349,1.249,19.647,19.647,0,0,0,0,2.038,23.709,23.709,0,0,0,.642,2.347H26.17l1.708-6.258a.37.37,0,0,0-.6-.355h0A2.8,2.8,0,0,1,25.032,33Z" transform="translate(-15.64 -31.586)" fill="#f9dc6a"/>
  <path id="Path_375" data-name="Path 375" d="M208.752,42.449h0a2.682,2.682,0,0,1-.575.321.333.333,0,0,1-.006.034l-1.708,6.258h1.176l1.708-6.258A.37.37,0,0,0,208.752,42.449Z" transform="translate(-197.108 -41.497)" fill="#e5ac51"/>
  <path id="Path_376" data-name="Path 376" d="M63.459,329H45.379v2.527h12.26v3.932h8.25v-4.21A2.345,2.345,0,0,0,63.459,329Z" transform="translate(-43.323 -316.099)" fill="#2bb4f3"/>
  <path id="Path_377" data-name="Path 377" d="M422.542,329H421.5a2.345,2.345,0,0,1,2.43,2.249v4.21h1.04v-4.21A2.345,2.345,0,0,0,422.542,329Z" transform="translate(-402.406 -316.099)" fill="#1687c4"/>
  <path id="Path_378" data-name="Path 378" d="M62.148,331.523v-.278A2.345,2.345,0,0,0,59.719,329H54.7a2.345,2.345,0,0,0-2.43,2.249v.278Z" transform="translate(-49.898 -316.099)" fill="#1687c4"/>
  <path id="Path_379" data-name="Path 379" d="M356.714,275.109v2.732c0,.748,1.464,1.5,1.464,1.5s1.464-.755,1.464-1.5v-2.732Z" transform="translate(-340.553 -264.472)" fill="#f2a077"/>
  <path id="Path_380" data-name="Path 380" d="M286.343,94.453v.4a.879.879,0,0,1-.911.844h-.309a3.839,3.839,0,0,1-4.491,3.38h0a3.73,3.73,0,0,1-3.3-3.38h-.309a.879.879,0,0,1-.911-.844v-.4a.879.879,0,0,1,.911-.844h.3V91.779c0-.049,0-.1,0-.146a9.389,9.389,0,0,0,1.652.145,9.188,9.188,0,0,0,4.676-1.258,8.631,8.631,0,0,0,.851-.571,3.036,3.036,0,0,1,.619,1.83v1.831h.3A.879.879,0,0,1,286.343,94.453Z" transform="translate(-263.603 -87.078)" fill="#fca"/>
  <path id="Path_381" data-name="Path 381" d="M380.673,93.609h-.3v-.747h0c0-1.241,0-1.144,0-1.161a3.038,3.038,0,0,0-.618-1.752,8.628,8.628,0,0,1-.851.571,3,3,0,0,1,.277,1.259v1.831l-.006,2.086a3.5,3.5,0,0,1-1.205,2.426,4.015,4.015,0,0,1-2.092.954,3.9,3.9,0,0,0,4.412-2.819h0q.031-.135.051-.274v-.008c.005-.039.01-.079.014-.119l0-.03c0-.043.008-.086.01-.13h.309a.879.879,0,0,0,.911-.844v-.4A.879.879,0,0,0,380.673,93.609Z" transform="translate(-358.844 -87.078)" fill="#f2a077"/>
  <path id="Path_382" data-name="Path 382" d="M32.639,335.456H22.757v-4.21A2.345,2.345,0,0,1,25.187,329h5.023a2.345,2.345,0,0,1,2.43,2.249Z" transform="translate(-21.726 -316.099)" fill="#ff5a59"/>
  <path id="Path_383" data-name="Path 383" d="M165.337,329H164.3a2.345,2.345,0,0,1,2.43,2.249v4.21h1.04v-4.21A2.345,2.345,0,0,0,165.337,329Z" transform="translate(-156.854 -316.099)" fill="#ce3a4c"/>
  <path id="Path_384" data-name="Path 384" d="M99.509,275.109v2.732a1.413,1.413,0,0,0,1.464,1.355h0a1.413,1.413,0,0,0,1.464-1.355v-2.732Z" transform="translate(-95.001 -264.472)" fill="#f2a077"/>
  <path id="Path_385" data-name="Path 385" d="M29.148,117.646v.4a.879.879,0,0,1-.911.844h-.309a3.426,3.426,0,0,1-.668,1.839h0a4.071,4.071,0,0,1-3.823,1.54h0a3.73,3.73,0,0,1-3.3-3.38h-.309a.879.879,0,0,1-.911-.844v-.4a.879.879,0,0,1,.911-.844h.3v-1.328c1.046-.065,1.385-.362,1.385-1.317,0,0,1.331,2.2,5.223,1.541a11.169,11.169,0,0,0,1.194-.272V116.8h.3A.879.879,0,0,1,29.148,117.646Z" transform="translate(-18.06 -110.271)" fill="#fca"/>
  <path id="Path_386" data-name="Path 386" d="M123.466,145.8h-.3v-1.376a11.172,11.172,0,0,1-1.194.272v1.1l-.006,2.086a3.5,3.5,0,0,1-1.205,2.426,4.013,4.013,0,0,1-2.092.954,4.077,4.077,0,0,0,3.823-1.54h0a3.3,3.3,0,0,0,.6-1.372h0c.021-.1.037-.211.048-.318v-.013c0-.045.008-.09.011-.136h.309a.879.879,0,0,0,.911-.844v-.4A.879.879,0,0,0,123.466,145.8Z" transform="translate(-113.29 -139.265)" fill="#f2a077"/>
  <path id="Path_387" data-name="Path 387" d="M9.174,323.045H8.347a.817.817,0,0,1-.847-.784V320.55a.817.817,0,0,1,.847-.784h.827a.6.6,0,0,1,.622.576v2.127A.6.6,0,0,1,9.174,323.045Z" transform="translate(-7.16 -307.256)" fill="#fca"/>
  <g id="Group_312" data-name="Group 312">
    <path id="Path_388" data-name="Path 388" d="M349.237,222.41a1.755,1.755,0,0,0,.422.589,1.99,1.99,0,0,0,1.357.52,1.917,1.917,0,0,0,1.779-1.108.307.307,0,0,0-.187-.41.35.35,0,0,0-.443.173,1.238,1.238,0,0,1-1.149.716,1.286,1.286,0,0,1-.877-.336,1.13,1.13,0,0,1-.272-.379.35.35,0,0,0-.442-.174A.307.307,0,0,0,349.237,222.41Z" transform="translate(-333.391 -213.569)"/>
    <path id="Path_389" data-name="Path 389" d="M338.763,171.949a.328.328,0,0,0,.34-.315v-.174a.341.341,0,0,0-.68,0v.174A.328.328,0,0,0,338.763,171.949Z" transform="translate(-323.091 -164.868)"/>
    <path id="Path_390" data-name="Path 390" d="M424.971,171.949a.328.328,0,0,0,.34-.315v-.174a.341.341,0,0,0-.68,0v.174A.328.328,0,0,0,424.971,171.949Z" transform="translate(-405.393 -164.868)"/>
    <path id="Path_391" data-name="Path 391" d="M93.811,223.518a1.917,1.917,0,0,0,1.779-1.108A.307.307,0,0,0,95.4,222a.35.35,0,0,0-.443.173,1.238,1.238,0,0,1-1.149.716,1.287,1.287,0,0,1-.877-.336,1.131,1.131,0,0,1-.272-.379A.349.349,0,0,0,92.22,222a.307.307,0,0,0-.188.409,1.756,1.756,0,0,0,.422.589A1.991,1.991,0,0,0,93.811,223.518Z" transform="translate(-87.839 -213.568)"/>
    <path id="Path_392" data-name="Path 392" d="M81.9,171.634v-.174a.341.341,0,0,0-.68,0v.174a.341.341,0,0,0,.68,0Z" transform="translate(-77.538 -164.868)"/>
    <path id="Path_393" data-name="Path 393" d="M167.766,171.949a.328.328,0,0,0,.34-.315v-.174a.341.341,0,0,0-.68,0v.174A.328.328,0,0,0,167.766,171.949Z" transform="translate(-159.841 -164.868)"/>
    <path id="Path_394" data-name="Path 394" d="M22.856,26.016a.328.328,0,0,0,.34-.315v-.873a2.346,2.346,0,0,0-2.429-2.248H20.31l-.055-.119a1.749,1.749,0,0,0-1.6-.971H16.4a4.2,4.2,0,0,0-4.35,4.027V31.94a1.762,1.762,0,0,0,1.824,1.689h1.944v.444H7.776v-.6A4.268,4.268,0,0,0,8.9,32.761a3.814,3.814,0,0,0,1.281-2.339,1.208,1.208,0,0,0,1.25-1.158v-.4a1.1,1.1,0,0,0-.292-.742l.782-2.865a.314.314,0,0,0-.246-.382.343.343,0,0,0-.413.228l-.724,2.652a1.335,1.335,0,0,0-.322-.048V26.646a.308.308,0,0,0-.138-.253.362.362,0,0,0-.3-.048,6.772,6.772,0,0,1-4.719-.081,3.235,3.235,0,0,1-1.3-1.042.351.351,0,0,0-.382-.15.32.32,0,0,0-.254.3c0,.779-.18.948-1.068,1a.326.326,0,0,0-.317.314v1.014a1.334,1.334,0,0,0-.356.058,9.591,9.591,0,0,1-.266-1.095,18.424,18.424,0,0,1,0-1.986s0-.009,0-.013a.975.975,0,0,1,1.009-.934h.515a.354.354,0,0,0,.24-.092L4.092,22.52a1.071,1.071,0,0,1,.947-.248l4.274.941a3.2,3.2,0,0,0,.689.075,3.141,3.141,0,0,0,1.853-.6.03.03,0,0,1,.04,0c.021.012.017.024.015.034l-.257.943a.314.314,0,0,0,.246.382.343.343,0,0,0,.413-.228l.257-.943a.631.631,0,0,0-.305-.717.75.75,0,0,0-.831.038,2.424,2.424,0,0,1-1.43.462,2.472,2.472,0,0,1-.531-.058L5.2,21.66a1.792,1.792,0,0,0-1.585.415L2.5,23.108H2.121A1.632,1.632,0,0,0,.433,24.665a19.2,19.2,0,0,0,0,2.083,11.387,11.387,0,0,0,.349,1.4,1.1,1.1,0,0,0-.267.714v.4a1.208,1.208,0,0,0,1.249,1.158,3.961,3.961,0,0,0,2.4,3.05v.6H3.461a2.988,2.988,0,0,0-.612.063.977.977,0,0,0-.835-.45H1.187A1.147,1.147,0,0,0,0,34.784V36.5a1.1,1.1,0,0,0,.691,1v3.353a.328.328,0,0,0,.34.315h9.882a.328.328,0,0,0,.34-.315v-4.21A2.483,2.483,0,0,0,10.3,34.7h5.523v.157c0,.907,1.471,1.692,1.639,1.779a.364.364,0,0,0,.331,0c.168-.087,1.638-.872,1.638-1.779V34.7h.708a2.019,2.019,0,0,1,2.09,1.935v3.9h-.952V38.424a.341.341,0,0,0-.68,0v2.107H14.656V36.914a.328.328,0,0,0-.34-.315H12.277a.315.315,0,1,0,0,.629h1.7v3.618a.328.328,0,0,0,.34.315h8.25a.328.328,0,0,0,.34-.315v-4.21a2.676,2.676,0,0,0-2.769-2.564h-.708v-.444h1.944A1.762,1.762,0,0,0,23.2,31.94V27.186a.341.341,0,0,0-.68,0V27.9a1.312,1.312,0,0,0-.651-.191V26.191a3.324,3.324,0,0,0-.68-2.009.345.345,0,0,0-.232-.132.359.359,0,0,0-.262.068,8.819,8.819,0,0,1-5.312,1.758,9.05,9.05,0,0,1-1.587-.139.361.361,0,0,0-.274.061.308.308,0,0,0-.13.232c0,.051,0,.1,0,.162v1.517a1.313,1.313,0,0,0-.651.191V25.517a3.546,3.546,0,0,1,3.671-3.4h2.254a1.066,1.066,0,0,1,.974.592l.144.308a.342.342,0,0,0,.312.19h.68a1.69,1.69,0,0,1,1.749,1.619V25.7A.328.328,0,0,0,22.856,26.016ZM2.416,30.091a.33.33,0,0,0-.339-.3H1.768a.552.552,0,0,1-.571-.529v-.4a.552.552,0,0,1,.571-.529h.3a.328.328,0,0,0,.34-.315V26.978c.708-.094,1.107-.349,1.28-.847A4.4,4.4,0,0,0,4.7,26.8a7.284,7.284,0,0,0,4.834.26v.959a.328.328,0,0,0,.34.315h.3a.552.552,0,0,1,.571.529v.4a.552.552,0,0,1-.571.529H9.867a.33.33,0,0,0-.339.3,3.184,3.184,0,0,1-1.1,2.215,3.6,3.6,0,0,1-1.121.67l-.006,0a3.842,3.842,0,0,1-2.655,0l-.02-.007A3.32,3.32,0,0,1,2.416,30.091Zm3.556,3.753A4.571,4.571,0,0,0,7.1,33.7v1.154a1,1,0,0,1-.329.736,1.164,1.164,0,0,1-.795.3,1.086,1.086,0,0,1-1.124-1.041V33.7A4.569,4.569,0,0,0,5.972,33.844Zm-5.293.94a.49.49,0,0,1,.507-.47h.827a.273.273,0,0,1,.282.261V36.7a.273.273,0,0,1-.282.261H1.187A.49.49,0,0,1,.68,36.5Zm9.894,1.852v3.9H9.621V38.424a.341.341,0,0,0-.68,0v2.107H3V38.424a.341.341,0,0,0-.68,0v2.107H1.371V37.594h.643a.929.929,0,0,0,.962-.891V34.754a2.254,2.254,0,0,1,.485-.053h.708v.157a1.742,1.742,0,0,0,1.8,1.67,1.867,1.867,0,0,0,1.275-.489,1.6,1.6,0,0,0,.528-1.181V34.7h.708A2.019,2.019,0,0,1,10.574,36.636Zm8.175-1.778c0,.349-.611.841-1.124,1.138-.513-.3-1.124-.79-1.124-1.138V33.7a4.578,4.578,0,0,0,2.248,0Zm3.768-2.919A1.105,1.105,0,0,1,21.372,33H20.253q.153-.112.3-.238a3.816,3.816,0,0,0,1.281-2.339,1.315,1.315,0,0,0,.686-.191V31.94Zm-9.667-3.075a.552.552,0,0,1,.571-.529h.3a.328.328,0,0,0,.34-.315v-1.6a9.85,9.85,0,0,0,1.316.088,9.569,9.569,0,0,0,5.438-1.679,2.708,2.708,0,0,1,.369,1.365v1.831a.328.328,0,0,0,.34.315h.3a.552.552,0,0,1,.571.529v.4a.552.552,0,0,1-.571.529H21.52a.33.33,0,0,0-.339.3,3.185,3.185,0,0,1-1.1,2.215,3.6,3.6,0,0,1-1.115.668l-.018.007a3.843,3.843,0,0,1-2.649,0l-.02-.007a3.32,3.32,0,0,1-2.209-2.88.33.33,0,0,0-.339-.3H13.42a.552.552,0,0,1-.571-.529v-.4Zm.57,1.557A3.858,3.858,0,0,0,15,33H13.877a1.106,1.106,0,0,1-1.144-1.059V30.231A1.316,1.316,0,0,0,13.419,30.422Z" transform="translate(0 -21.49)"/>
  </g>
</svg>
