<svg id="work" xmlns="http://www.w3.org/2000/svg" width="29.166" height="27" viewBox="0 0 29.166 27">
  <g id="Group_307" data-name="Group 307" transform="translate(0.425 0.413)">
    <ellipse id="Ellipse_5" data-name="Ellipse 5" cx="1.938" cy="1.794" rx="1.938" ry="1.794" transform="translate(17.35 15.972)" fill="#ffdecf"/>
    <path id="Path_329" data-name="Path 329" d="M314.232,313.778a1.7,1.7,0,0,1,0-2.538,1.943,1.943,0,0,1,.557-.361,2.055,2.055,0,0,0-2.184.361,1.7,1.7,0,0,0,0,2.538,2.055,2.055,0,0,0,2.184.361A1.944,1.944,0,0,1,314.232,313.778Z" transform="translate(-294.688 -294.742)" fill="#ffcebe"/>
    <path id="Path_330" data-name="Path 330" d="M289.825,410.032V407.5l-.312-.2c-.068-.006-.137-.01-.207-.01h-2.84a2.021,2.021,0,0,0-2.094,1.939v2.717a.509.509,0,0,0,.527.488h5.238l.684-.249v-1.477Z" transform="translate(-268.598 -386.225)" fill="#b3e59f"/>
    <path id="Path_331" data-name="Path 331" d="M285.853,411.947V409.23a2.021,2.021,0,0,1,2.094-1.939h-1.481a2.021,2.021,0,0,0-2.094,1.939v2.717a.509.509,0,0,0,.527.488h1.481A.509.509,0,0,1,285.853,411.947Z" transform="translate(-268.598 -386.226)" fill="#95d6a4"/>
    <path id="Path_332" data-name="Path 332" d="M380.249,378.769h-4.62a.978.978,0,0,0-1.013.938v3.285a.978.978,0,0,0,1.013.938l.133.1h4.424l.062-.1a.978.978,0,0,0,1.013-.938v-3.285A.978.978,0,0,0,380.249,378.769Z" transform="translate(-353.701 -359.208)" fill="#d3effb"/>
    <path id="Path_333" data-name="Path 333" d="M376.4,382.994v-3.285a.978.978,0,0,1,1.013-.938H375.63a.978.978,0,0,0-1.013.938v3.285a.978.978,0,0,0,1.013.938l.133.095h1.784l-.133-.095A.978.978,0,0,1,376.4,382.994Z" transform="translate(-353.702 -359.209)" fill="#b1e4f9"/>
    <path id="Path_334" data-name="Path 334" d="M369.195,476.65h-7.322a.4.4,0,0,0-.412.381,1.152,1.152,0,0,0,1.194,1.105h5.759a1.152,1.152,0,0,0,1.194-1.105A.4.4,0,0,0,369.195,476.65Z" transform="translate(-341.295 -451.927)" fill="#e4f6ff"/>
    <path id="Path_335" data-name="Path 335" d="M363.245,477.031a.4.4,0,0,1,.412-.381h-1.784a.4.4,0,0,0-.412.381,1.152,1.152,0,0,0,1.194,1.105h1.784A1.152,1.152,0,0,1,363.245,477.031Z" transform="translate(-341.295 -451.927)" fill="#d3effb"/>
    <ellipse id="Ellipse_6" data-name="Ellipse 6" cx="1.938" cy="1.794" rx="1.938" ry="1.794" transform="translate(9.463)" fill="#ffdecf"/>
    <path id="Path_336" data-name="Path 336" d="M175.774,10.9a1.7,1.7,0,0,1,0-2.538,1.944,1.944,0,0,1,.557-.36,2.056,2.056,0,0,0-2.184.36,1.7,1.7,0,0,0,0,2.538,2.056,2.056,0,0,0,2.184.36A1.945,1.945,0,0,1,175.774,10.9Z" transform="translate(-164.117 -7.833)" fill="#ffcebe"/>
    <path id="Path_337" data-name="Path 337" d="M151.368,107.152v-2.531l-.312-.2c-.068-.006-.137-.009-.206-.009h-2.84a2.021,2.021,0,0,0-2.094,1.939v2.717a.509.509,0,0,0,.527.488h5.238l.684-.249v-1.477Z" transform="translate(-138.028 -99.317)" fill="#dd636e"/>
    <path id="Path_338" data-name="Path 338" d="M147.4,109.067V106.35a2.021,2.021,0,0,1,2.094-1.939h-1.481a2.021,2.021,0,0,0-2.094,1.939v2.717a.509.509,0,0,0,.527.488h1.481A.509.509,0,0,1,147.4,109.067Z" transform="translate(-138.028 -99.318)" fill="#da4a54"/>
    <path id="Path_339" data-name="Path 339" d="M241.792,75.889h-4.62a.978.978,0,0,0-1.013.938v3.285a.978.978,0,0,0,1.013.938l.133.095h4.424l.062-.095a.978.978,0,0,0,1.013-.938V76.827A.978.978,0,0,0,241.792,75.889Z" transform="translate(-223.131 -72.3)" fill="#d3effb"/>
    <path id="Path_340" data-name="Path 340" d="M237.944,80.113V76.827a.978.978,0,0,1,1.013-.938h-1.784a.978.978,0,0,0-1.013.938v3.285a.978.978,0,0,0,1.013.938l.133.095h1.784l-.133-.095A.978.978,0,0,1,237.944,80.113Z" transform="translate(-223.132 -72.3)" fill="#b1e4f9"/>
    <path id="Path_341" data-name="Path 341" d="M230.738,173.769h-7.322a.4.4,0,0,0-.412.381,1.152,1.152,0,0,0,1.194,1.1h5.759a1.152,1.152,0,0,0,1.194-1.1A.4.4,0,0,0,230.738,173.769Z" transform="translate(-210.725 -165.018)" fill="#e4f6ff"/>
    <path id="Path_342" data-name="Path 342" d="M224.787,174.15a.4.4,0,0,1,.412-.381h-1.784a.4.4,0,0,0-.412.381,1.152,1.152,0,0,0,1.194,1.1h1.784A1.152,1.152,0,0,1,224.787,174.15Z" transform="translate(-210.724 -165.018)" fill="#d3effb"/>
    <ellipse id="Ellipse_7" data-name="Ellipse 7" cx="1.938" cy="1.794" rx="1.938" ry="1.794" transform="translate(1.576 15.972)" fill="#ffdecf"/>
    <path id="Path_343" data-name="Path 343" d="M37.316,313.778a1.7,1.7,0,0,1,0-2.538,1.943,1.943,0,0,1,.557-.361,2.056,2.056,0,0,0-2.184.361,1.7,1.7,0,0,0,0,2.538,2.056,2.056,0,0,0,2.184.361A1.944,1.944,0,0,1,37.316,313.778Z" transform="translate(-33.546 -294.742)" fill="#ffcebe"/>
    <path id="Path_344" data-name="Path 344" d="M12.91,410.032V407.5l-.312-.2c-.068-.006-.137-.01-.206-.01H9.551a2.021,2.021,0,0,0-2.094,1.939v2.717a.509.509,0,0,0,.527.488h5.238l.684-.249v-1.477Z" transform="translate(-7.457 -386.225)" fill="#ffaa5b"/>
    <path id="Path_345" data-name="Path 345" d="M8.938,411.947V409.23a2.021,2.021,0,0,1,2.094-1.939H9.551a2.021,2.021,0,0,0-2.094,1.939v2.717a.509.509,0,0,0,.527.488H9.465A.509.509,0,0,1,8.938,411.947Z" transform="translate(-7.457 -386.226)" fill="#ff9838"/>
    <path id="Path_346" data-name="Path 346" d="M103.334,378.769h-4.62a.978.978,0,0,0-1.013.938v3.285a.978.978,0,0,0,1.013.938l.133.1h4.424l.062-.1a.978.978,0,0,0,1.013-.938v-3.285A.978.978,0,0,0,103.334,378.769Z" transform="translate(-92.56 -359.208)" fill="#d3effb"/>
    <path id="Path_347" data-name="Path 347" d="M99.486,382.994v-3.285a.978.978,0,0,1,1.013-.938H98.715a.978.978,0,0,0-1.013.938v3.285a.978.978,0,0,0,1.013.938l.133.095h1.784l-.133-.095A.978.978,0,0,1,99.486,382.994Z" transform="translate(-92.561 -359.209)" fill="#b1e4f9"/>
    <path id="Path_348" data-name="Path 348" d="M92.28,476.65H84.958a.4.4,0,0,0-.412.381,1.152,1.152,0,0,0,1.194,1.105H91.5a1.152,1.152,0,0,0,1.194-1.105A.4.4,0,0,0,92.28,476.65Z" transform="translate(-80.155 -451.927)" fill="#e4f6ff"/>
    <path id="Path_349" data-name="Path 349" d="M86.33,477.031a.4.4,0,0,1,.412-.381H84.958a.4.4,0,0,0-.412.381,1.152,1.152,0,0,0,1.194,1.105h1.784A1.152,1.152,0,0,1,86.33,477.031Z" transform="translate(-80.155 -451.927)" fill="#d3effb"/>
  </g>
  <g id="Group_308" data-name="Group 308" transform="translate(0)">
    <path id="Path_350" data-name="Path 350" d="M152.566,236.474l3.036-1.969,3.036,1.969a.449.449,0,0,0,.6-.1.377.377,0,0,0-.1-.551l-3.1-2.01v-3.1a.429.429,0,0,0-.855,0v3.1l-3.1,2.01a.377.377,0,0,0-.1.551A.449.449,0,0,0,152.566,236.474Z" transform="translate(-143.241 -218.173)"/>
    <path id="Path_351" data-name="Path 351" d="M166.123,2.19a2.373,2.373,0,0,0,4.731,0,2.373,2.373,0,0,0-4.731,0Zm3.434-.989A1.34,1.34,0,0,1,170,2.19a1.516,1.516,0,0,1-3.022,0,1.458,1.458,0,0,1,1.511-1.4A1.564,1.564,0,0,1,169.557,1.2Z" transform="translate(-156.66)"/>
    <path id="Path_352" data-name="Path 352" d="M139.413,75.495H150.23a1.566,1.566,0,0,0,1.621-1.5.813.813,0,0,0-.875-.777,1.243,1.243,0,0,0,.125-.543v-.72a.429.429,0,0,0-.854,0v.72a.566.566,0,0,1-.586.543h-4.62a.566.566,0,0,1-.586-.543V69.39a.566.566,0,0,1,.586-.543h4.62a.566.566,0,0,1,.586.543v.72a.429.429,0,0,0,.854,0v-.72a1.392,1.392,0,0,0-1.441-1.334h-4.62A1.392,1.392,0,0,0,143.6,69.39v.171h-2.619a2.436,2.436,0,0,0-2.522,2.334v2.717A.922.922,0,0,0,139.413,75.495ZM151,74.009a.742.742,0,0,1-.766.7h-5.759a.742.742,0,0,1-.766-.7Zm-11.682-2.114a1.611,1.611,0,0,1,1.667-1.543H143.6v2.324a1.261,1.261,0,0,0,.125.543.813.813,0,0,0-.874.777,1.42,1.42,0,0,0,.193.709h-1.907V72.527a.429.429,0,0,0-.854,0V74.7h-.868a.1.1,0,0,1-.1-.092V71.894Z" transform="translate(-130.572 -64.467)"/>
    <path id="Path_353" data-name="Path 353" d="M28.358,303.5a2.1,2.1,0,0,0-.693,1.549,2.373,2.373,0,0,0,4.731,0A2.4,2.4,0,0,0,28.358,303.5Zm3.184,1.549a1.516,1.516,0,1,1-1.511-1.4A1.457,1.457,0,0,1,31.542,305.048Z" transform="translate(-26.089 -286.886)"/>
    <path id="Path_354" data-name="Path 354" d="M.954,378.375H11.771a1.566,1.566,0,0,0,1.621-1.5.811.811,0,0,0-.839-.777h-.035a1.243,1.243,0,0,0,.125-.543V372.27a1.392,1.392,0,0,0-1.441-1.334H6.581a1.392,1.392,0,0,0-1.441,1.334v.171H2.522A2.436,2.436,0,0,0,0,374.774v2.717a.922.922,0,0,0,.954.883ZM6,372.845v-.575a.566.566,0,0,1,.586-.543H11.2a.566.566,0,0,1,.586.543v3.285a.566.566,0,0,1-.586.543H6.581A.566.566,0,0,1,6,375.555Zm6.542,4.044a.742.742,0,0,1-.766.7H6.012a.742.742,0,0,1-.766-.7ZM.854,374.774a1.611,1.611,0,0,1,1.667-1.543H5.141v2.324a1.263,1.263,0,0,0,.125.543.813.813,0,0,0-.874.777,1.42,1.42,0,0,0,.193.709H2.677v-2.176a.412.412,0,0,0-.427-.4.412.412,0,0,0-.427.4v2.176H.954a.1.1,0,0,1-.1-.093Z" transform="translate(0 -351.375)"/>
    <path id="Path_355" data-name="Path 355" d="M304.58,305.045a2.281,2.281,0,0,0,2.366,2.189,2.175,2.175,0,0,0,1.673-3.737h0A2.4,2.4,0,0,0,304.58,305.045Zm3.434.989a1.531,1.531,0,0,1-2.58-.989,1.457,1.457,0,0,1,1.511-1.4,1.571,1.571,0,0,1,1.069.409A1.328,1.328,0,0,1,308.014,306.034Z" transform="translate(-287.23 -286.883)"/>
    <path id="Path_356" data-name="Path 356" d="M282.114,117a.4.4,0,1,0,0,.791h.61a.4.4,0,1,0,0-.791Z" transform="translate(-265.641 -110.826)"/>
    <path id="Path_357" data-name="Path 357" d="M421.182,419.877h-.61a.4.4,0,1,0,0,.791h.61a.4.4,0,1,0,0-.791Z" transform="translate(-396.211 -397.735)"/>
    <path id="Path_358" data-name="Path 358" d="M146.964,420.668h.61a.4.4,0,1,0,0-.791h-.61a.4.4,0,1,0,0,.791Z" transform="translate(-138.19 -397.735)"/>
    <path id="Path_359" data-name="Path 359" d="M288.687,377.584H286.8a.4.4,0,1,0,0,.791h1.882a1.566,1.566,0,0,0,1.621-1.5.812.812,0,0,0-.875-.777,1.242,1.242,0,0,0,.125-.543V372.27a1.392,1.392,0,0,0-1.441-1.334H283.5a1.392,1.392,0,0,0-1.441,1.334v.171h-2.619a2.436,2.436,0,0,0-2.522,2.334v2.717a.922.922,0,0,0,.954.884h6.94a.4.4,0,1,0,0-.791h-1.882a.742.742,0,0,1-.766-.7h7.291A.742.742,0,0,1,288.687,377.584Zm-7.379-.709a1.42,1.42,0,0,0,.193.709h-1.907v-2.176a.429.429,0,0,0-.854,0v2.176h-.868a.1.1,0,0,1-.1-.093v-2.717a1.611,1.611,0,0,1,1.667-1.543h2.619v2.324a1.26,1.26,0,0,0,.125.543A.813.813,0,0,0,281.307,376.874Zm7.4-1.319a.566.566,0,0,1-.586.543H283.5a.566.566,0,0,1-.586-.543V372.27a.566.566,0,0,1,.586-.543h4.62a.566.566,0,0,1,.586.543Z" transform="translate(-261.142 -351.375)"/>
  </g>
</svg>
