<svg xmlns="http://www.w3.org/2000/svg" width="23.16" height="15.44" viewBox="0 0 23.16 15.44">
  <path id="Icon_awesome-eye" data-name="Icon awesome-eye" d="M23.02,11.633A12.9,12.9,0,0,0,11.58,4.5,12.9,12.9,0,0,0,.14,11.633a1.3,1.3,0,0,0,0,1.174A12.9,12.9,0,0,0,11.58,19.94a12.9,12.9,0,0,0,11.44-7.133A1.3,1.3,0,0,0,23.02,11.633ZM11.58,18.01a5.79,5.79,0,1,1,5.79-5.79A5.79,5.79,0,0,1,11.58,18.01Zm0-9.65a3.832,3.832,0,0,0-1.018.152,1.924,1.924,0,0,1-2.69,2.69A3.851,3.851,0,1,0,11.58,8.36Z" transform="translate(0 -4.5)" fill="#7a7a7a"/>
</svg>
