<svg xmlns="http://www.w3.org/2000/svg" width="19" height="12.917" viewBox="0 0 19 12.917">
  <g id="Icon_ionic-ios-menu" data-name="Icon ionic-ios-menu" transform="translate(-4.5 -10.125)">
    <path id="Path_406" data-name="Path 406" d="M22.708,11.97H5.292a.867.867,0,0,1-.792-.923h0a.867.867,0,0,1,.792-.923H22.708a.867.867,0,0,1,.792.923h0A.867.867,0,0,1,22.708,11.97Z" fill="#fff"/>
    <path id="Path_407" data-name="Path 407" d="M22.708,18.72H5.292A.867.867,0,0,1,4.5,17.8h0a.867.867,0,0,1,.792-.923H22.708a.867.867,0,0,1,.792.923h0A.867.867,0,0,1,22.708,18.72Z" transform="translate(0 -1.214)" fill="#fff"/>
    <path id="Path_408" data-name="Path 408" d="M15.641,25.47H4.984c-.266,0-.484-.415-.484-.923h0c0-.507.218-.923.484-.923H15.641c.266,0,.484.415.484.923h0C16.125,25.055,15.907,25.47,15.641,25.47Z" transform="translate(0 -2.429)" fill="#fff"/>
  </g>
</svg>
