<svg xmlns="http://www.w3.org/2000/svg" width="25.994" height="15.596" viewBox="0 0 25.994 15.596">
  <path id="Icon_awesome-graduation-cap" data-name="Icon awesome-graduation-cap" d="M25.277,8.123,13.947,4.642a3.245,3.245,0,0,0-1.9,0L.717,8.123a.956.956,0,0,0,0,1.852l1.975.607a3.2,3.2,0,0,0-.726,1.9,1.253,1.253,0,0,0-.1,2.153L.826,19.305a.65.65,0,0,0,.634.791H3.739a.65.65,0,0,0,.634-.791L3.336,14.639a1.25,1.25,0,0,0-.073-2.133,1.916,1.916,0,0,1,.84-1.491l7.943,2.441a3.248,3.248,0,0,0,1.9,0l11.33-3.481a.956.956,0,0,0,0-1.852ZM14.329,14.7a4.547,4.547,0,0,1-2.664,0l-5.89-1.809L5.2,17.5c0,1.436,3.491,2.6,7.8,2.6s7.8-1.164,7.8-2.6l-.576-4.609Z" transform="translate(0 -4.5)" fill="#7a7a7a"/>
</svg>
