<svg xmlns="http://www.w3.org/2000/svg" width="20.756" height="20.756" viewBox="0 0 20.756 20.756">
  <path id="Icon_awesome-globe-asia" data-name="Icon awesome-globe-asia" d="M10.378.563A10.378,10.378,0,1,0,20.756,10.94,10.378,10.378,0,0,0,10.378.563ZM9.9,10.615a.669.669,0,0,1-.574.325H9.316a.67.67,0,0,0-.473.2l-.237.237a.335.335,0,0,0,0,.473l.237.237a.67.67,0,0,1,.2.473v.392a.669.669,0,0,1-.67.67H8.114a.669.669,0,0,1-.6-.37l-.947-1.893a.335.335,0,0,0-.536-.087l-.815.814a.67.67,0,0,1-.473.2H2.126a8.353,8.353,0,0,1,10.831-9.3l-2.1,1.612a.335.335,0,0,0,.036.578l.453.226a.669.669,0,0,1,.37.6V9.266a.335.335,0,0,1-.335.335h-.128a.334.334,0,0,1-.3-.185A.186.186,0,0,0,10.63,9.4L9.9,10.615Zm7.17,4.611a.67.67,0,0,1-.2.473l-.4.4a.67.67,0,0,1-.473.2h-.634a.67.67,0,0,1-.473-.2l-.544-.544a1.12,1.12,0,0,0-1.064-.295l-.89.223a.664.664,0,0,1-.162.02H11.8a.67.67,0,0,1-.473-.2l-.5-.5a.335.335,0,0,1-.1-.237v-.427a.335.335,0,0,1,.21-.311l1.646-.659a1.122,1.122,0,0,0,.234-.128l.992-.707a.334.334,0,0,1,.194-.062h.506a.335.335,0,0,1,.309.206l.224.538a.167.167,0,0,0,.154.1h.159a.167.167,0,0,0,.161-.121L15.7,12.4a.167.167,0,0,1,.161-.121h.254a.167.167,0,0,1,.167.167v.541a.335.335,0,0,0,.1.237l.5.5a.67.67,0,0,1,.2.473v1.029Z" transform="translate(0 -0.563)" fill="#7a7a7a"/>
</svg>
