<svg xmlns="http://www.w3.org/2000/svg" width="30.1" height="30.1" viewBox="0 0 30.1 30.1">
  <path id="Icon_awesome-info-circle" data-name="Icon awesome-info-circle" d="M15.612.563a15.05,15.05,0,1,0,15.05,15.05A15.052,15.052,0,0,0,15.612.563Zm0,6.675a2.549,2.549,0,1,1-2.549,2.549A2.549,2.549,0,0,1,15.612,7.238Zm3.4,15.414a.728.728,0,0,1-.728.728h-5.34a.728.728,0,0,1-.728-.728V21.2a.728.728,0,0,1,.728-.728h.728V16.583h-.728a.728.728,0,0,1-.728-.728V14.4a.728.728,0,0,1,.728-.728h3.884a.728.728,0,0,1,.728.728v6.068h.728a.728.728,0,0,1,.728.728Z" transform="translate(-0.563 -0.563)" fill="#fc0"/>
</svg>
