<svg id="like_3_" data-name="like (3)" xmlns="http://www.w3.org/2000/svg" width="24.44" height="19.795" viewBox="0 0 24.44 19.795">
  <path id="Path_360" data-name="Path 360" d="M206.412,86.865H200a.735.735,0,0,1-.716-.506.666.666,0,0,1,.338-.772c2.8-1.529,4.248-3.313,4.439-5.453a1.554,1.554,0,0,1,1.593-1.326,3.244,3.244,0,0,1,2.184.865,2.78,2.78,0,0,1,.9,2.036h0v.231a7.237,7.237,0,0,1-1.705,4.617A.759.759,0,0,1,206.412,86.865Z" transform="translate(-189.835 -78.807)" fill="#ffc380"/>
  <path id="Path_361" data-name="Path 361" d="M154.98,227.235a2.246,2.246,0,0,0-2.324-2.152H140.7a.787.787,0,0,0-.378.1c-.839.459-1.687.837-2.367,1.141-.238.106-.462.206-.666.3a.683.683,0,0,0-.41.614v8.79a.683.683,0,0,0,.41.614,18.27,18.27,0,0,0,8.395,1.555c.45,0,.91,0,1.383-.008.523,0,1.064-.009,1.632-.009h2.345a2.246,2.246,0,0,0,2.324-2.152,2.019,2.019,0,0,0-.323-1.093,2.124,2.124,0,0,0,1.114-1.837,2.019,2.019,0,0,0-.323-1.093,2.124,2.124,0,0,0,1.114-1.837,2.058,2.058,0,0,0-.608-1.45A2.055,2.055,0,0,0,154.98,227.235Z" transform="translate(-130.54 -218.399)" fill="#ffcf99"/>
  <path id="SVGCleanerId_0" d="M74.041,418.319v3.617H72.557v-3.617a.744.744,0,0,1,1.484,0Z" transform="translate(-69.392 -402.149)" fill="#73c3ff"/>
  <g id="Group_311" data-name="Group 311" transform="translate(3.165 15.483)">
    <path id="SVGCleanerId_0_1_" d="M74.041,418.319v3.617H72.557v-3.617a.744.744,0,0,1,1.484,0Z" transform="translate(-72.557 -417.632)" fill="#73c3ff"/>
  </g>
  <path id="Path_370" data-name="Path 370" d="M15.51,225.083H9.18a.716.716,0,0,0-.742.687v11.72a.729.729,0,0,0,.742.7h4.748a2.375,2.375,0,0,0,2.08-1.2,2.005,2.005,0,0,0,.245-.96V225.77A.716.716,0,0,0,15.51,225.083Z" transform="translate(-8.438 -218.399)" fill="#44a4ec"/>
  <path id="Path_371" data-name="Path 371" d="M74.041,417.317v3.663H72.557v-3.663a.744.744,0,0,1,1.484,0Z" transform="translate(-69.392 -401.193)" fill="#73c3ff"/>
</svg>
