<svg id="gallery" xmlns="http://www.w3.org/2000/svg" width="25.233" height="18.471" viewBox="0 0 25.233 18.471">
  <g id="Group_315" data-name="Group 315">
    <path id="Path_402" data-name="Path 402" d="M25.233,239.152v1.257A2.184,2.184,0,0,1,22.97,242.5H2.263A2.184,2.184,0,0,1,0,240.409v-2.933l6.223-4.19a2.723,2.723,0,0,1,3.281.14l4.149,3.352a2.85,2.85,0,0,0,3.093.244l8.486-4.609Z" transform="translate(0 -224.033)" fill="#00ceb4"/>
    <path id="Path_403" data-name="Path 403" d="M25.233,109.12V115.4l-8.486,4.609a2.85,2.85,0,0,1-3.093-.244L9.5,116.417a2.724,2.724,0,0,0-3.281-.14L0,120.468V109.12a2.184,2.184,0,0,1,2.263-2.095H22.97A2.184,2.184,0,0,1,25.233,109.12Z" transform="translate(0 -107.025)" fill="#00efd1"/>
  </g>
  <ellipse id="Ellipse_8" data-name="Ellipse 8" cx="2.414" cy="2.235" rx="2.414" ry="2.235" transform="translate(12.673 3.492)" fill="#d4e1f4"/>
</svg>
