<svg xmlns="http://www.w3.org/2000/svg" width="21.439" height="21.44" viewBox="0 0 21.439 21.44">
  <path id="Icon_awesome-plus-circle" data-name="Icon awesome-plus-circle" d="M11.282.563A10.72,10.72,0,1,0,22,11.282,10.718,10.718,0,0,0,11.282.563Zm6.224,11.93a.52.52,0,0,1-.519.519H13.011v3.977a.52.52,0,0,1-.519.519H10.072a.52.52,0,0,1-.519-.519V13.011H5.577a.52.52,0,0,1-.519-.519V10.072a.52.52,0,0,1,.519-.519H9.553V5.577a.52.52,0,0,1,.519-.519h2.421a.52.52,0,0,1,.519.519V9.553h3.977a.52.52,0,0,1,.519.519Z" transform="translate(-0.563 -0.563)" fill="#6a6a6a"/>
</svg>
