<svg xmlns="http://www.w3.org/2000/svg" width="21.496" height="21.496" viewBox="0 0 21.496 21.496">
  <path id="Icon_ionic-ios-checkmark-circle" data-name="Icon ionic-ios-checkmark-circle" d="M14.123,3.375A10.748,10.748,0,1,0,24.871,14.123,10.746,10.746,0,0,0,14.123,3.375Zm5.5,7.777-6.909,6.94h-.005a.933.933,0,0,1-.6.284.9.9,0,0,1-.6-.295L8.615,15.187a.206.206,0,0,1,0-.295l.92-.92a.2.2,0,0,1,.289,0l2.294,2.294,6.3-6.35a.2.2,0,0,1,.145-.062h0a.188.188,0,0,1,.145.062l.9.935A.2.2,0,0,1,19.626,11.152Z" transform="translate(-3.375 -3.375)" fill="#00c133"/>
</svg>
