 <svg
                      id="timeline"
                      xmlns="http://www.w3.org/2000/svg"
                      width="26.982"
                      height="32.5"
                      viewBox="0 0 26.982 32.5"
                    >
                      <g
                        id="Group_305"
                        data-name="Group 305"
                        transform="translate(0.863 0.648)"
                      >
                        <g
                          id="Group_303"
                          data-name="Group 303"
                          transform="translate(0 10.897)"
                        >
                          <rect
                            id="Rectangle_65"
                            data-name="Rectangle 65"
                            width="16.039"
                            height="6.845"
                            transform="translate(9.344)"
                            fill="#00efd1"
                          />
                          <ellipse
                            id="Ellipse_3"
                            data-name="Ellipse 3"
                            cx="2.465"
                            cy="2.282"
                            rx="2.465"
                            ry="2.282"
                            transform="translate(0 3.158)"
                            fill="#00efd1"
                          />
                        </g>
                        <g
                          id="Group_304"
                          data-name="Group 304"
                          transform="translate(0)"
                        >
                          <rect
                            id="Rectangle_66"
                            data-name="Rectangle 66"
                            width="12.36"
                            height="6.845"
                            transform="translate(9.344)"
                            fill="#d4e1f4"
                          />
                          <ellipse
                            id="Ellipse_4"
                            data-name="Ellipse 4"
                            cx="2.465"
                            cy="2.282"
                            rx="2.465"
                            ry="2.282"
                            transform="translate(0 0.749)"
                            fill="#d4e1f4"
                          />
                        </g>
                      </g>
                      <g
                        id="Group_306"
                        data-name="Group 306"
                        transform="translate(0)"
                      >
                        <path
                          id="Path_321"
                          data-name="Path 321"
                          d="M186.368,8.174H174.045a.681.681,0,0,1-.736-.611.623.623,0,0,1,0-.07V.682a.668.668,0,0,1,.66-.681q.038,0,.076,0h12.323a.681.681,0,0,1,.736.611.638.638,0,0,1,0,.07V7.493a.668.668,0,0,1-.66.681C186.419,8.175,186.393,8.175,186.368,8.174ZM174.781,6.812h10.852V1.363H174.781Z"
                          transform="translate(-163.801 0)"
                          fill="#083863"
                        />
                        <path
                          id="Path_322"
                          data-name="Path 322"
                          d="M190.046,175.357h-16a.681.681,0,0,1-.736-.611.623.623,0,0,1,0-.07v-6.811a.668.668,0,0,1,.66-.681q.038,0,.076,0h16a.681.681,0,0,1,.736.611.588.588,0,0,1,0,.07v6.811a.668.668,0,0,1-.66.681A.717.717,0,0,1,190.046,175.357Zm-15.266-1.362h14.53v-5.449H174.78Z"
                          transform="translate(-163.8 -156.286)"
                          fill="#083863"
                        />
                        <path
                          id="Path_324"
                          data-name="Path 324"
                          d="M45.475,26.92A3.324,3.324,0,0,0,42.729,23.7V17.55a3.305,3.305,0,0,0,2.7-3.941,3.578,3.578,0,0,0-4.257-2.5,3.368,3.368,0,0,0-2.786,3.217,3.281,3.281,0,0,0,2.7,3.224V23.7a3.308,3.308,0,0,0-2.723,3.928,3.442,3.442,0,0,0,2.723,2.521v6.145a3.281,3.281,0,0,0-2.7,3.224,3.576,3.576,0,0,0,7.13-.008,3.368,3.368,0,0,0-2.786-3.217V30.144A3.324,3.324,0,0,0,45.475,26.92ZM40.066,14.326a1.855,1.855,0,0,1,1.885-1.783,1.9,1.9,0,0,1,1.967,1.783,1.9,1.9,0,0,1-1.967,1.783A1.855,1.855,0,0,1,40.066,14.326Zm0,12.594A1.91,1.91,0,1,1,41.953,28.7h0A1.855,1.855,0,0,1,40.066,26.92Zm3.852,12.594A1.9,1.9,0,0,1,41.951,41.3a1.788,1.788,0,1,1,0-3.566A1.9,1.9,0,0,1,43.917,39.513Z"
                          transform="translate(-38.284 -10.31)"
                          fill="#083863"
                        />
                        <path
                          id="Path_325"
                          data-name="Path 325"
                          d="M209.635,37.948H205.4a.683.683,0,1,1,0-1.362h4.23a.683.683,0,1,1,0,1.362Z"
                          transform="translate(-192.954 -34.201)"
                          fill="#083863"
                        />
                        <path
                          id="Path_326"
                          data-name="Path 326"
                          d="M213.314,69.3H205.4a.683.683,0,1,1,0-1.362h7.909a.683.683,0,1,1,0,1.362Z"
                          transform="translate(-192.954 -63.505)"
                          fill="#083863"
                        />
                        <path
                          id="Path_327"
                          data-name="Path 327"
                          d="M209.635,205.132H205.4a.683.683,0,1,1,0-1.362h4.23a.683.683,0,1,1,0,1.362Z"
                          transform="translate(-192.954 -190.488)"
                          fill="#083863"
                        />
                        <path
                          id="Path_328"
                          data-name="Path 328"
                          d="M213.314,236.479H205.4a.683.683,0,1,1,0-1.362h7.909a.683.683,0,1,1,0,1.362Z"
                          transform="translate(-192.954 -219.792)"
                          fill="#083863"
                        />
                      </g>
                    </svg>