<svg xmlns="http://www.w3.org/2000/svg" width="38.148" height="26.703" viewBox="0 0 38.148 26.703"><defs><style>.a{fill:#fff;}</style></defs><path class="a" d="M11.444,15.6A6.676,6.676,0,1,0,4.768,8.926,6.672,6.672,0,0,0,11.444,15.6Zm4.578,1.907h-.495a9.217,9.217,0,0,1-8.166,0H6.867A6.868,6.868,0,0,0,0,24.376v1.717a2.862,2.862,0,0,0,2.861,2.861H20.028a2.862,2.862,0,0,0,2.861-2.861V24.376A6.868,6.868,0,0,0,16.022,17.509ZM28.611,15.6A5.722,5.722,0,1,0,22.889,9.88,5.724,5.724,0,0,0,28.611,15.6Zm2.861,1.907h-.226a7.516,7.516,0,0,1-5.269,0H25.75a6.62,6.62,0,0,0-3.32.918A8.723,8.723,0,0,1,24.8,24.376v2.289c0,.131-.03.256-.036.381H35.287a2.862,2.862,0,0,0,2.861-2.861A6.672,6.672,0,0,0,31.472,17.509Z" transform="translate(0 -2.25)"/></svg>