<svg xmlns="http://www.w3.org/2000/svg" width="23.583" height="18.761" viewBox="0 0 23.583 18.761"><path d="M0,5.218H5.218V0H0ZM1.382,1.382H3.836V3.836H1.382Zm0,0"/><path d="M149.3,0V5.218H166V0Zm15.324,3.836H150.679V1.382h13.942Zm0,0" transform="translate(-142.42)"/><path d="M0,152.226H5.218v-5.218H0Zm1.382-3.836H3.836v2.454H1.382Zm0,0" transform="translate(0 -140.237)"/><path d="M149.3,152.226H166v-5.218H149.3Zm1.382-3.836h13.942v2.454H150.679Zm0,0" transform="translate(-142.42 -140.237)"/><path d="M0,299.23H5.218v-5.218H0Zm1.382-3.836H3.836v2.454H1.382Zm0,0" transform="translate(0 -280.47)"/><path d="M149.3,299.23H166v-5.218H149.3Zm1.382-3.836h13.942v2.454H150.679Zm0,0" transform="translate(-142.42 -280.47)"/></svg>