<svg xmlns="http://www.w3.org/2000/svg" width="25.249" height="31.579" viewBox="0 0 25.249 31.579"><defs><style>.a{fill:#0080a1;}</style></defs><path class="a" d="M18.408,32.519c2.455,0,3.8-1.736,3.8-4.183H14.6C14.6,30.783,15.946,32.519,18.408,32.519Z" transform="translate(-5.8 -0.94)"/><path class="a" d="M31.69,27.317c-1.215-1.6-3.607-2.541-3.607-9.716,0-7.364-3.252-10.324-6.283-11.034-.284-.071-.489-.166-.489-.466V5.872a1.926,1.926,0,1,0-3.852,0V6.1c0,.292-.205.395-.489.466-3.039.718-6.283,3.67-6.283,11.034,0,7.175-2.392,8.106-3.607,9.716a1.567,1.567,0,0,0,1.255,2.51H30.443A1.567,1.567,0,0,0,31.69,27.317Z" transform="translate(-6.761 -3.93)"/></svg>