<svg xmlns="http://www.w3.org/2000/svg" width="23.624" height="20.764" viewBox="0 0 23.624 20.764"><defs><style>.a{fill:#5a5a5a;}.b{fill:#444;}.c{fill:#6e6e6e;}.d{fill:#ffd400;}.e{fill:#fdbf00;}</style></defs><path class="a" d="M160.69,33.076v1.384a.685.685,0,0,1-.692.692h-.692V33.076a.685.685,0,0,0-.692-.692h-5.537a.685.685,0,0,0-.692.692v2.076h-.692a.685.685,0,0,1-.692-.692V33.076A2.074,2.074,0,0,1,153.076,31h5.537A2.074,2.074,0,0,1,160.69,33.076Z" transform="translate(-144.033 -31)"/><path class="b" d="M258.768,32.384H256V31h2.768a2.074,2.074,0,0,1,2.076,2.076v1.384a.685.685,0,0,1-.692.692h-.692V33.076A.685.685,0,0,0,258.768,32.384Z" transform="translate(-244.188 -31)"/><path class="a" d="M23.624,95.983v15.227a2.074,2.074,0,0,1-2.076,2.076H2.076A2.074,2.074,0,0,1,0,111.209V95.983A.68.68,0,0,1,.208,95.5l3.53,7.946h16.15l3.53-7.946A.68.68,0,0,1,23.624,95.983Z" transform="translate(0 -92.522)"/><path class="b" d="M267.812,95.983v15.227a2.074,2.074,0,0,1-2.076,2.076H256v-9.842h8.075L267.6,95.5A.68.68,0,0,1,267.812,95.983Z" transform="translate(-244.188 -92.522)"/><path class="c" d="M27.71,91.208l-2.146,7.946a2.073,2.073,0,0,1-2.007,1.536H8.654a2.073,2.073,0,0,1-2.007-1.536L4.5,91.208A.68.68,0,0,1,4.985,91h22.24A.68.68,0,0,1,27.71,91.208Z" transform="translate(-4.293 -88.232)"/><path class="a" d="M267.6,91.208l-2.146,7.946a2.073,2.073,0,0,1-2.007,1.536H256V91h11.12A.68.68,0,0,1,267.6,91.208Z" transform="translate(-244.188 -88.232)"/><path class="d" d="M187.229,256h-5.537a.685.685,0,0,0-.692.692v2.768a.685.685,0,0,0,.692.692h5.537a.685.685,0,0,0,.692-.692v-2.768A.685.685,0,0,0,187.229,256Z" transform="translate(-172.648 -245.618)"/><path class="e" d="M259.461,256.692v2.768a.685.685,0,0,1-.692.692H256V256h2.768A.685.685,0,0,1,259.461,256.692Z" transform="translate(-244.188 -245.618)"/></svg>